<svg xmlns="http://www.w3.org/2000/svg" width="128" height="96" viewBox="0 0 128 96" fill="none">
  <rect width="128" height="24" rx="6" fill="#5B7DC9" />
  <circle cx="14" cy="12" r="6" fill="#E55952" />
  <circle cx="36" cy="12" r="6" fill="#F5D76E" />
  <circle cx="58" cy="12" r="6" fill="#80E89B" />
  <rect y="24" width="128" height="72" rx="6" fill="#666666" />
  <path d="M35 54 L28 64 L35 74" stroke="#D2E0F0" stroke-width="5" stroke-linecap="round" stroke-linejoin="round" fill="none" />
  <path d="M52 54 L52 74" stroke="#D2E0F0" stroke-width="5" stroke-linecap="round" />
  <path d="M70 54 L77 64 L70 74" stroke="#D2E0F0" stroke-width="5" stroke-linecap="round" stroke-linejoin="round" fill="none" />
  <rect x="10" y="84" width="12" height="6" rx="3" fill="#F58DB2" />
  <rect x="44" y="84" width="18" height="6" rx="3" fill="#F58DB2" />
  <rect x="26" y="84" width="14" height="6" rx="3" fill="#B4D5F5" />
  <rect x="72" y="84" width="18" height="6" rx="3" fill="#B4D5F5" />
  <rect x="64" y="84" width="32" height="6" rx="3" fill="#F5D76E" />
  <rect x="102" y="84" width="12" height="6" rx="3" fill="#F58DB2" />
</svg>